<svg width="556" height="470" viewBox="0 0 556 470" fill="none" xmlns="http://www.w3.org/2000/svg">
<g clip-path="url(#clip0_708_67)">
<path d="M296.25 139.905C295.794 140.364 295.376 140.858 294.998 141.383L237.106 139.335L230.484 126.9L210.438 134.454L220.023 157.614C220.797 159.485 222.157 161.054 223.897 162.085C225.637 163.116 227.665 163.554 229.675 163.333L295.186 156.13C296.708 158.104 298.795 159.568 301.168 160.326C303.541 161.083 306.088 161.1 308.471 160.372C310.854 159.645 312.959 158.208 314.506 156.253C316.053 154.298 316.969 151.918 317.133 149.429C317.296 146.94 316.699 144.46 315.42 142.319C314.141 140.179 312.242 138.478 309.975 137.445C307.708 136.412 305.18 136.094 302.729 136.534C300.277 136.975 298.017 138.152 296.25 139.91V139.905Z" fill="#A0616A"/>
<path d="M185.384 79.4763C204.053 79.4763 219.187 64.3204 219.187 45.6247C219.187 26.9289 204.053 11.773 185.384 11.773C166.714 11.773 151.58 26.9289 151.58 45.6247C151.58 64.3204 166.714 79.4763 185.384 79.4763Z" fill="#2F2E41"/>
<path d="M158.998 27.3728C164.461 21.9025 165.568 14.142 161.471 10.0393C157.374 5.93653 149.624 7.04518 144.162 12.5155C138.699 17.9858 137.592 25.7463 141.689 29.849C145.786 33.9517 153.535 32.8431 158.998 27.3728Z" fill="#2F2E41"/>
<path d="M220.616 16.6227C222.892 11.287 218.978 4.498 211.874 1.45903C204.77 -1.57993 197.166 0.281902 194.89 5.61762C192.614 10.9533 196.528 17.7424 203.632 20.7814C210.736 23.8203 218.34 21.9584 220.616 16.6227Z" fill="#2F2E41"/>
<path d="M234.567 137.029L208.625 148.645C207.887 148.975 207.087 149.143 206.278 149.135C205.47 149.128 204.672 148.947 203.94 148.603C203.208 148.259 202.559 147.761 202.036 147.144C201.513 146.526 201.13 145.803 200.911 145.023L193.262 117.706C191.599 113.916 191.504 109.62 192.997 105.759C194.491 101.899 197.452 98.7882 201.231 97.1092C205.01 95.4302 209.3 95.3195 213.16 96.8013C217.021 98.2831 220.137 101.237 221.828 105.015L237.014 128.856C237.449 129.539 237.731 130.308 237.842 131.11C237.954 131.912 237.891 132.728 237.659 133.504C237.427 134.279 237.03 134.996 236.496 135.604C235.963 136.212 235.305 136.698 234.566 137.029H234.567Z" fill="#CCCCCC"/>
<path d="M114.761 251.323C116.548 250.907 118.222 250.104 119.665 248.971C121.109 247.837 122.287 246.4 123.116 244.762C123.945 243.123 124.405 241.322 124.464 239.486C124.523 237.65 124.179 235.823 123.456 234.134L169.715 129.477L143.253 122.803L106.103 227.776C103.351 229.179 101.208 231.545 100.081 234.425C98.954 237.304 98.9209 240.498 99.9881 243.4C101.055 246.303 103.148 248.712 105.871 250.173C108.594 251.633 111.757 252.042 114.761 251.323V251.323Z" fill="#A0616A"/>
<path d="M102.151 441.023L115.607 445.929L140.909 396.289L121.048 389.048L102.151 441.023Z" fill="#A0616A"/>
<path d="M137.009 467.904L94.718 452.485L100.667 436.122L126.618 445.584C130.952 447.164 134.481 450.403 136.43 454.589C138.378 458.775 138.586 463.565 137.009 467.904V467.904L137.009 467.904Z" fill="#2F2E41"/>
<path d="M133.979 412.457C133.154 412.457 132.338 412.274 131.592 411.92L116.128 404.585C114.86 403.989 113.861 402.939 113.327 401.642C112.793 400.346 112.764 398.896 113.244 397.578L156.888 276.55C157.249 275.547 157.887 274.668 158.727 274.014C159.568 273.36 160.576 272.959 161.635 272.856C162.694 272.752 163.761 272.952 164.711 273.432C165.662 273.912 166.457 274.651 167.004 275.565L190.088 314.092C190.601 314.951 190.878 315.931 190.888 316.931C190.899 317.932 190.644 318.917 190.148 319.787L138.885 409.624C138.389 410.486 137.673 411.202 136.812 411.7C135.951 412.197 134.974 412.458 133.979 412.457V412.457Z" fill="#2F2E41"/>
<path d="M186.456 82.4354C202.3 82.4354 215.145 69.5728 215.145 53.7059C215.145 37.839 202.3 24.9763 186.456 24.9763C170.611 24.9763 157.767 37.839 157.767 53.7059C157.767 69.5728 170.611 82.4354 186.456 82.4354Z" fill="#A0616A"/>
<path d="M227.043 184.328L176.246 170.339L149.229 116.229C147.931 113.63 147.318 110.741 147.448 107.838C147.579 104.934 148.448 102.113 149.974 99.6403C151.5 97.1681 153.631 95.1274 156.166 93.7122C158.701 92.297 161.555 91.5542 164.457 91.5543H204.872C209.067 91.5516 213.115 93.1019 216.237 95.9072C227.079 105.633 249.855 133.671 227.262 183.839L227.043 184.328Z" fill="#CCCCCC"/>
<path d="M163.453 148.194L137.716 136.13C136.984 135.787 136.334 135.29 135.811 134.672C135.288 134.055 134.904 133.332 134.685 132.553C134.466 131.773 134.418 130.956 134.543 130.156C134.668 129.356 134.964 128.592 135.41 127.917L151.051 104.262C152.827 100.523 156.012 97.6408 159.906 96.2481C163.8 94.8554 168.087 95.0653 171.827 96.8318C175.567 98.5984 178.455 101.778 179.859 105.673C181.263 109.568 181.067 113.861 179.316 117.613L171.228 144.707C170.996 145.482 170.6 146.199 170.067 146.808C169.534 147.416 168.876 147.903 168.138 148.233C167.4 148.564 166.599 148.732 165.791 148.726C164.982 148.719 164.185 148.538 163.453 148.194H163.453Z" fill="#CCCCCC"/>
<path d="M194.589 454.588H208.91L215.723 399.274L194.587 399.275L194.589 454.588Z" fill="#A0616A"/>
<path d="M236.528 467.902L191.522 467.904L191.521 450.491L219.139 450.49C223.751 450.489 228.174 452.324 231.435 455.589C234.696 458.855 236.528 463.284 236.528 467.902V467.902V467.902Z" fill="#2F2E41"/>
<path d="M199.997 433.51C198.71 433.512 197.461 433.069 196.461 432.256C195.462 431.443 194.773 430.31 194.51 429.048C190.394 409.626 169.015 310.144 152.33 258.902C135.353 206.767 164.265 183.02 170.234 178.789C170.869 178.34 171.374 177.729 171.697 177.02L176.033 167.468C176.483 166.482 177.206 165.646 178.117 165.06C179.027 164.473 180.087 164.162 181.169 164.162H181.205C213.71 164.356 224.638 174.617 227.827 179.02C228.298 179.676 228.62 180.427 228.772 181.22C228.924 182.013 228.902 182.829 228.708 183.613L208.141 268.587C208.013 269.114 207.984 269.66 208.055 270.197L228.518 424.483C228.616 425.225 228.566 425.979 228.371 426.701C228.175 427.423 227.838 428.099 227.379 428.689C226.919 429.279 226.348 429.772 225.696 430.138C225.045 430.505 224.327 430.737 223.585 430.823L200.658 433.472C200.439 433.497 200.218 433.51 199.997 433.51Z" fill="#2F2E41"/>
<path d="M156.31 35.6351C162.866 40.16 170.647 42.5681 178.61 42.5362C175.769 44.5083 172.536 45.8404 169.132 46.4407C179.718 48.7148 190.659 48.7763 201.27 46.6216C203.629 46.2428 205.905 45.4601 207.998 44.3076C209.041 43.7242 209.95 42.9275 210.666 41.9693C211.381 41.0111 211.887 39.9128 212.151 38.7459C212.856 34.7121 209.717 31.0473 206.455 28.5775C201.461 24.8536 195.703 22.288 189.597 21.0661C183.492 19.8443 177.191 19.9968 171.151 21.5127C167.208 22.5335 163.257 24.2584 160.695 27.43C158.134 30.6015 157.375 35.4911 159.816 38.757L156.31 35.6351Z" fill="#2F2E41"/>
<path d="M493.06 359.24V468.88L464.66 468.058H319.361V378.613L361.757 359.24H493.06Z" fill="#CCCCCC"/>
<path opacity="0.1" d="M493.06 359.24V359.582L482.864 366.415L464.66 378.613H319.361L361.757 359.24H493.06Z" fill="black"/>
<path opacity="0.1" d="M493.06 359.24V468.88L464.659 468.058L464.865 378.406L482.864 366.415L492.895 359.24H493.06Z" fill="black"/>
<path d="M454.78 370.987H366.285L372.87 367.277H457.662L454.78 370.987Z" fill="white"/>
<path d="M554.832 470H1.16807C0.858277 470 0.561191 469.877 0.342136 469.657C0.123081 469.438 0 469.141 0 468.83C0 468.52 0.123081 468.223 0.342136 468.003C0.561191 467.784 0.858277 467.661 1.16807 467.661H554.832C555.142 467.661 555.439 467.784 555.658 468.003C555.877 468.223 556 468.52 556 468.83C556 469.141 555.877 469.438 555.658 469.657C555.439 469.877 555.142 470 554.832 470Z" fill="#E6E6E6"/>
<path d="M407.725 159.821H311.943C309.156 159.817 306.484 158.707 304.513 156.734C302.542 154.76 301.434 152.084 301.431 149.293V45.1879C301.434 42.3968 302.542 39.7209 304.513 37.7473C306.484 35.7737 309.156 34.6636 311.943 34.6604H407.725C410.512 34.6636 413.184 35.7737 415.155 37.7473C417.126 39.7209 418.234 42.3968 418.237 45.1879V149.293C418.234 152.084 417.126 154.76 415.155 156.734C413.184 158.707 410.512 159.817 407.725 159.821V159.821ZM311.943 36.9998C309.775 37.0023 307.697 37.8657 306.164 39.4008C304.631 40.9358 303.769 43.017 303.767 45.1879V149.293C303.769 151.464 304.631 153.545 306.164 155.08C307.697 156.615 309.775 157.479 311.943 157.481H407.725C409.893 157.479 411.971 156.615 413.504 155.08C415.037 153.545 415.899 151.464 415.901 149.293V45.1879C415.899 43.017 415.037 40.9358 413.504 39.4008C411.971 37.8657 409.893 37.0023 407.725 36.9998H311.943Z" fill="#3F3D56"/>
<path d="M331.234 77.9401H321.889C320.496 77.9386 319.16 77.3835 318.174 76.3967C317.189 75.4099 316.635 74.0719 316.633 72.6764V63.3186C316.635 61.9231 317.189 60.5851 318.174 59.5983C319.16 58.6115 320.496 58.0564 321.889 58.0549H331.234C332.627 58.0564 333.964 58.6115 334.949 59.5983C335.934 60.5851 336.489 61.9231 336.49 63.3186V72.6764C336.489 74.0719 335.934 75.4099 334.949 76.3967C333.964 77.3835 332.627 77.9386 331.234 77.9401V77.9401Z" fill="#AB31D6"/>
<path d="M331.234 107.183H321.889C320.496 107.182 319.16 106.626 318.174 105.64C317.189 104.653 316.635 103.315 316.633 101.919V92.5616C316.635 91.166 317.189 89.8281 318.174 88.8412C319.16 87.8544 320.496 87.2994 321.889 87.2979H331.234C332.627 87.2994 333.964 87.8544 334.949 88.8412C335.934 89.8281 336.489 91.166 336.49 92.5616V101.919C336.489 103.315 335.934 104.653 334.949 105.64C333.964 106.626 332.627 107.182 331.234 107.183V107.183Z" fill="#CCCCCC"/>
<path d="M399.531 72.2517H355.904C354.975 72.2507 354.084 71.8806 353.428 71.2228C352.771 70.5649 352.401 69.6729 352.4 68.7425V67.2524C352.401 66.322 352.771 65.43 353.428 64.7722C354.084 64.1143 354.975 63.7442 355.904 63.7432H399.531C400.46 63.7442 401.351 64.1143 402.008 64.7722C402.664 65.43 403.034 66.322 403.035 67.2524V68.7425C403.034 69.6729 402.664 70.5649 402.008 71.2228C401.351 71.8806 400.46 72.2507 399.531 72.2517V72.2517Z" fill="#AB31D6"/>
<path d="M399.531 101.495H355.904C354.975 101.494 354.084 101.124 353.428 100.466C352.771 99.8079 352.401 98.9159 352.4 97.9856V96.4954C352.401 95.5651 352.771 94.6731 353.428 94.0152C354.084 93.3573 354.975 92.9873 355.904 92.9863H399.531C400.46 92.9873 401.351 93.3573 402.008 94.0152C402.664 94.6731 403.034 95.5651 403.035 96.4954V97.9856C403.034 98.9159 402.664 99.8079 402.008 100.466C401.351 101.124 400.46 101.494 399.531 101.495V101.495Z" fill="#CCCCCC"/>
<path d="M331.234 136.426H321.889C320.496 136.425 319.16 135.87 318.174 134.883C317.189 133.896 316.635 132.558 316.633 131.162V121.805C316.635 120.409 317.189 119.071 318.174 118.084C319.16 117.097 320.496 116.542 321.889 116.541H331.234C332.627 116.542 333.964 117.097 334.949 118.084C335.934 119.071 336.489 120.409 336.49 121.805V131.162C336.489 132.558 335.934 133.896 334.949 134.883C333.964 135.87 332.627 136.425 331.234 136.426V136.426Z" fill="#CCCCCC"/>
<path d="M399.531 130.738H355.904C354.975 130.737 354.084 130.367 353.428 129.709C352.771 129.051 352.401 128.159 352.4 127.229V125.738C352.401 124.808 352.771 123.916 353.428 123.258C354.084 122.6 354.975 122.23 355.904 122.229H399.531C400.46 122.23 401.351 122.6 402.008 123.258C402.664 123.916 403.034 124.808 403.035 125.738V127.229C403.034 128.159 402.664 129.051 402.008 129.709C401.351 130.367 400.46 130.737 399.531 130.738Z" fill="#CCCCCC"/>
</g>
<defs>
<clipPath id="clip0_708_67">
<rect width="556" height="470" fill="white"/>
</clipPath>
</defs>
</svg>
